<svg id="Layer_1" data-name="Layer 1" xmlns="http://www.w3.org/2000/svg" viewBox="0 0 79.91 34.05"><defs><style>.cls-1{fill:#ee7203;}.cls-2{fill:#482683;}</style></defs><path class="cls-1" d="M79.41,19.26a2.08,2.08,0,1,0-2.07,2.13,2,2,0,0,0,2.07-2.13Zm-2.62.11v1.4h-.45V17.69h1.12c.66,0,1,.29,1,.85a.63.63,0,0,1-.53.65v0c.25,0,.35.27.4.7a3,3,0,0,0,.2.86H78a9.61,9.61,0,0,1-.2-1,.46.46,0,0,0-.52-.36Zm.56-.39c.44,0,.56-.24.56-.44s-.12-.44-.56-.44h-.56V19Zm-2.58.28a2.57,2.57,0,1,1,2.57,2.54,2.52,2.52,0,0,1-2.57-2.54Z"/><polygon class="cls-1" points="65.87 21.36 62.91 18.04 59.98 21.36 53.8 21.36 59.84 14.58 53.8 7.8 60.17 7.8 63.16 11.1 66.04 7.8 72.18 7.8 66.18 14.55 72.27 21.36 65.87 21.36 65.87 21.36"/><polygon class="cls-1" points="41.95 21.36 41.95 0 53.8 0 53.8 4.76 46.97 4.76 46.97 7.8 53.8 7.8 53.8 12.38 46.97 12.38 46.97 16.59 53.8 16.59 53.8 21.36 41.95 21.36 41.95 21.36"/><path class="cls-2" d="M37,0V8.74h-.06A5.07,5.07,0,0,0,32.8,7a6.91,6.91,0,0,0-6.64,5.19A7.14,7.14,0,0,0,18.82,7,7.46,7.46,0,0,0,12,10.6V7.8H5.67v-3h7V0H0V21.36H5.67v-9h5.66a8.47,8.47,0,0,0-.26,2.11,7.46,7.46,0,0,0,7.75,7.59,7.3,7.3,0,0,0,7.33-4.85H21.29a2.45,2.45,0,0,1-2.47,1.22A2.92,2.92,0,0,1,16,15.55h9.9a7.21,7.21,0,0,0,7,6.59,4.86,4.86,0,0,0,4-2.16H37v1.38h5V0ZM16.14,12.45a2.74,2.74,0,0,1,2.68-2.25,2.61,2.61,0,0,1,2.71,2.25Zm17.77,5.66a3.25,3.25,0,0,1-3-3.51c0-1.92,1-3.76,3-3.76s2.89,1.84,2.89,3.76-.87,3.51-2.89,3.51Z"/><polygon class="cls-2" points="41.95 32.04 41.95 24.39 46.18 24.39 46.18 24.96 42.65 24.96 42.65 27.78 46.03 27.78 46.03 28.35 42.65 28.35 42.65 31.47 46.34 31.47 46.34 32.04 41.95 32.04 41.95 32.04"/><polygon class="cls-2" points="46.84 32.04 48.9 29.29 46.95 26.69 47.74 26.69 49.34 28.82 50.9 26.69 51.69 26.69 49.71 29.29 51.78 32.04 50.98 32.04 49.26 29.77 47.63 32.04 46.84 32.04 46.84 32.04"/><path class="cls-2" d="M53.12,34.05h-.64V28.29c0-.53,0-1.07,0-1.6h.64l0,.81a1.84,1.84,0,0,1,1.72-.93c1.65,0,2.36,1.36,2.36,2.8s-.71,2.8-2.36,2.8a1.88,1.88,0,0,1-1.7-.9v2.78Zm3.37-4.68c0-1.14-.47-2.27-1.74-2.27s-1.63,1-1.63,2.27.43,2.26,1.63,2.26,1.74-1.12,1.74-2.26Z"/><path class="cls-2" d="M60.5,27.19c-1.07,0-1.44.9-1.44,1.83v3h-.65V28.27c0-.52,0-1.05,0-1.58H59l0,.77a1.61,1.61,0,0,1,1.55-.89l.3,0v.64a3,3,0,0,0-.41,0Z"/><path class="cls-2" d="M61.7,29.48c0,1.21.57,2.2,1.74,2.2a1.47,1.47,0,0,0,1.49-1.2h.62a2,2,0,0,1-2.19,1.69C61.73,32.17,61,31,61,29.46s.75-2.89,2.43-2.89,2.16,1.49,2.16,2.91Zm0-.48h3.19c0-1.05-.49-1.95-1.51-1.95s-1.55.7-1.68,1.95Z"/><path class="cls-2" d="M68.12,32.17c-1.1,0-1.93-.52-1.93-1.69h.65a1.15,1.15,0,0,0,1.31,1.2c.73,0,1.3-.35,1.3-1.06s-.67-.82-1.36-1c-.85-.24-1.77-.51-1.77-1.54s1-1.49,1.86-1.49S70,27,70,28.08h-.64a1,1,0,0,0-1.18-1c-.54,0-1.19.21-1.19.91s.65.82,1.35,1,1.78.48,1.78,1.52c0,1.21-.93,1.65-2,1.65Z"/><path class="cls-2" d="M72.59,32.17c-1.1,0-1.92-.52-1.92-1.69h.64a1.15,1.15,0,0,0,1.31,1.2c.73,0,1.3-.35,1.3-1.06s-.67-.82-1.36-1c-.85-.24-1.77-.51-1.77-1.54s1-1.49,1.86-1.49,1.81.4,1.84,1.51h-.64a1,1,0,0,0-1.18-1c-.54,0-1.19.21-1.19.91s.65.82,1.35,1c.85.23,1.78.48,1.78,1.52,0,1.21-.93,1.65-2,1.65Z"/></svg>