<?xml version="1.0" encoding="utf-8"?>
<!-- Generator: Adobe Illustrator 25.0.0, SVG Export Plug-In . SVG Version: 6.00 Build 0)  -->
<svg version="1.1" id="Layer_1" xmlns="http://www.w3.org/2000/svg" xmlns:xlink="http://www.w3.org/1999/xlink" x="0px" y="0px"
	 viewBox="0 0 199.8 118" style="enable-background:new 0 0 199.8 118;" xml:space="preserve">
<style type="text/css">
	.st0{fill:#482683;}
	.st1{fill:#EE7203;}
</style>
<g>
	<g>
		<g>
			<path class="st0" d="M3.6,95.5H5l2.4,7.3c0.2,0.5,0.3,1,0.3,1h0c0,0,0.1-0.6,0.3-1l2.4-7.2h1.3l2.4,7.2c0.2,0.5,0.3,1,0.3,1h0
				c0,0,0.1-0.6,0.3-1l2.4-7.3h1.4l-3.3,9.8h-1.4l-2.4-6.9c-0.2-0.5-0.3-1-0.3-1h0c0,0-0.1,0.6-0.3,1l-2.4,6.9H6.9L3.6,95.5z"/>
			<path class="st0" d="M20.4,91.6h1.4v1.7h-1.4V91.6z M20.4,95.5h1.3v9.8h-1.3V95.5z"/>
			<path class="st0" d="M24.8,91.6h1.3v11c0,1.3,0.6,1.5,1.1,1.5c0.2,0,0.3,0,0.3,0v1.2c0,0-0.2,0-0.5,0c-0.8,0-2.3-0.3-2.3-2.4
				V91.6z"/>
			<path class="st0" d="M29.6,91.6h1.3v11c0,1.3,0.6,1.5,1.1,1.5c0.2,0,0.3,0,0.3,0v1.2c0,0-0.2,0-0.5,0c-0.8,0-2.3-0.3-2.3-2.4
				V91.6z"/>
			<path class="st0" d="M39.7,91.6H41v4.7c0,0.4,0,0.8,0,0.8h0c0,0,0.8-1.9,3.3-1.9c2.6,0,4.3,2.1,4.3,5.1c0,3.1-1.8,5.1-4.4,5.1
				c-2.3,0-3.2-1.9-3.2-1.9h0c0,0,0,0.3,0,0.8v0.9h-1.3V91.6z M44.1,104.3c1.7,0,3.1-1.5,3.1-3.9c0-2.4-1.3-3.9-3.1-3.9
				c-1.6,0-3.2,1.2-3.2,3.9C41,102.4,42,104.3,44.1,104.3"/>
			<path class="st0" d="M55.3,95.3c2.7,0,4.1,2.1,4.1,4.5c0,0.2,0,0.7,0,0.7h-7.5c0.1,2.5,1.8,3.9,3.8,3.9c1.8,0,3-1.2,3-1.2l0.6,1
				c0,0-1.4,1.4-3.6,1.4c-2.9,0-5.1-2.1-5.1-5.1C50.5,97.2,52.6,95.3,55.3,95.3 M58,99.4c-0.1-2-1.3-3-2.8-3c-1.6,0-3,1-3.4,3H58z"
				/>
			<path class="st0" d="M66.3,95.3c2.4,0,3.6,1.4,3.6,1.4l-0.7,1c0,0-1.1-1.2-2.9-1.2c-2.1,0-3.8,1.6-3.8,3.9c0,2.3,1.7,3.9,3.8,3.9
				c2,0,3.1-1.4,3.1-1.4l0.6,1c0,0-1.3,1.5-3.8,1.5c-2.9,0-5.1-2.1-5.1-5.1C61.2,97.4,63.5,95.3,66.3,95.3"/>
			<path class="st0" d="M77,95.3c2.9,0,5.2,2.2,5.2,5.1c0,3-2.3,5.2-5.2,5.2c-2.9,0-5.2-2.2-5.2-5.2C71.8,97.5,74.1,95.3,77,95.3
				 M77,104.3c2.1,0,3.8-1.7,3.8-4c0-2.2-1.7-3.9-3.8-3.9c-2.1,0-3.8,1.7-3.8,3.9C73.2,102.6,74.9,104.3,77,104.3"/>
			<path class="st0" d="M84.6,95.5h1.3V97c0,0.4,0,0.8,0,0.8h0c0.5-1.3,2-2.5,3.5-2.5c1.8,0,2.7,0.8,3,2.4h0
				c0.5-1.3,1.9-2.4,3.6-2.4c2.4,0,3.2,1.4,3.2,3.8v6.2H98v-5.9c0-1.6-0.3-2.9-2.1-2.9c-1.5,0-2.7,1.3-3.1,2.8
				c-0.1,0.4-0.2,0.9-0.2,1.4v4.6h-1.3v-5.9c0-1.5-0.2-2.9-2.1-2.9c-1.6,0-2.8,1.4-3.2,2.9c-0.1,0.4-0.1,0.9-0.1,1.3v4.6h-1.3V95.5z
				"/>
			<path class="st0" d="M106.5,95.3c2.7,0,4.1,2.1,4.1,4.5c0,0.2,0,0.7,0,0.7h-7.5c0.1,2.5,1.8,3.9,3.8,3.9c1.8,0,3-1.2,3-1.2l0.6,1
				c0,0-1.4,1.4-3.6,1.4c-2.9,0-5.1-2.1-5.1-5.1C101.7,97.2,103.9,95.3,106.5,95.3 M109.3,99.4c-0.1-2-1.3-3-2.8-3c-1.6,0-3,1-3.4,3
				H109.3z"/>
		</g>
		<g>
			<path class="st1" d="M172.5,20c0.5,0,0.9,0.4,0.9,0.9v5.9c0,0.5-0.4,0.9-0.9,0.9h-6.8c-0.9,0-1.7-0.1-1.7-0.1V51
				c0,0.5-0.4,0.9-0.9,0.9h-7.3c-0.5,0-0.9-0.4-0.9-0.9V27.6c0,0-0.6,0.1-1.4,0.1h-7.2c-0.5,0-0.9-0.4-0.9-0.9v-5.9
				c0-0.5,0.4-0.9,0.9-0.9H172.5L172.5,20z M21.9,20c-0.5,0-0.9,0.4-0.9,0.9v5.9c0,0.5,0.4,0.9,0.9,0.9h7.2c0.7,0,1.4-0.1,1.4-0.1
				V51c0,0.5,0.4,0.9,0.9,0.9h7.3c0.5,0,0.9-0.4,0.9-0.9V27.6c0,0,0.9,0.1,1.7,0.1h6.8c0.5,0,0.9-0.4,0.9-0.9v-5.9
				c0-0.5-0.4-0.9-0.9-0.9H21.9L21.9,20z M159.4,0c-13.5,0-25.2,7.7-31.1,19C122.5,7.7,110.7,0,97.2,0C83.7,0,72,7.7,66.1,19
				C60.3,7.7,48.5,0,35,0C15.7,0,0,15.8,0,35.2c0,19.4,15.7,35.2,35,35.2c13.5,0,25.2-7.7,31.1-19c5.8,11.3,17.6,19,31.1,19
				c13.5,0,25.2-7.7,31.1-19c5.8,11.3,17.6,19,31.1,19c19.3,0,35-15.8,35-35.2C194.5,15.8,178.7,0,159.4,0 M35,62.5
				c-15,0-27.1-12.2-27.1-27.3c0-15,12.2-27.3,27.1-27.3c15,0,27.1,12.2,27.1,27.3C62.2,50.2,50,62.5,35,62.5 M97.2,62.5
				c-15,0-27.1-12.2-27.1-27.3c0-15,12.2-27.3,27.1-27.3c15,0,27.1,12.2,27.1,27.3C124.4,50.2,112.2,62.5,97.2,62.5 M159.4,62.5
				c-15,0-27.1-12.2-27.1-27.3c0-15,12.2-27.3,27.1-27.3c15,0,27.1,12.2,27.1,27.3C186.6,50.2,174.4,62.5,159.4,62.5 M110.8,19.4
				c0.6,0,1,0.4,1,0.9v29.7c0,0.5-0.4,0.9-0.9,0.9h-6.1c-0.4,0-0.8-0.2-1-0.5c0,0-11.1-15.1-11.4-15.5c-0.4-0.5-0.7-1.4-0.7-1.4
				v16.6c0,0.5-0.4,0.9-0.9,0.9h-6.9c-0.5,0-0.9-0.4-0.9-0.9V20.3c0-0.5,0.4-0.9,0.9-0.9h6.1c0.4,0,0.8,0.2,1,0.5
				c0,0,10.9,14.9,11.4,15.5c0.4,0.5,0.8,1.4,0.8,1.4V20.3c0-0.5,0.4-0.9,0.9-0.9C103.9,19.4,110.3,19.4,110.8,19.4"/>
		</g>
		<g>
			<path class="st1" d="M199.3,103.2c0-1.2-0.9-2.1-2.1-2.1c-1.2,0-2.1,0.9-2.1,2.1s0.9,2.1,2.1,2.1
				C198.5,105.4,199.3,104.5,199.3,103.2L199.3,103.2L199.3,103.2L199.3,103.2z M196.7,103.3v1.4h-0.5v-3.1h1.1c0.7,0,1,0.3,1,0.8
				c0,0.3-0.2,0.6-0.5,0.7v0c0.3,0,0.4,0.3,0.4,0.7c0,0.3,0.1,0.8,0.2,0.9h-0.5c-0.1-0.3-0.1-0.7-0.2-1c-0.1-0.3-0.2-0.4-0.5-0.4
				H196.7L196.7,103.3L196.7,103.3z M197.3,103c0.4,0,0.6-0.2,0.6-0.4c0-0.2-0.1-0.4-0.6-0.4h-0.6v0.9H197.3L197.3,103L197.3,103z
				 M194.7,103.2c0-1.5,1.2-2.5,2.6-2.5c1.4,0,2.6,1,2.6,2.5c0,1.5-1.2,2.5-2.6,2.5C195.9,105.8,194.7,104.8,194.7,103.2
				L194.7,103.2L194.7,103.2z"/>
			<polygon class="st1" points="185.8,105.3 182.8,102 179.9,105.3 173.7,105.3 179.8,98.6 173.7,91.8 180.1,91.8 183.1,95.1 
				185.9,91.8 192.1,91.8 186.1,98.5 192.2,105.3 185.8,105.3 			"/>
			<polygon class="st1" points="161.9,105.3 161.9,84 173.7,84 173.7,88.7 166.9,88.7 166.9,91.8 173.7,91.8 173.7,96.4 166.9,96.4 
				166.9,100.6 173.7,100.6 173.7,105.3 161.9,105.3 			"/>
			<path class="st0" d="M156.9,84v8.7h-0.1c-1.1-1.3-2.5-1.7-4.1-1.7c-3.3,0-5.8,2.2-6.6,5.2c-1-3.3-3.5-5.3-7.3-5.3
				c-3.1,0-5.5,1.4-6.8,3.6v-2.8h-6.4v-3h6.9V84h-12.6v21.4h5.7v-9h5.7c-0.2,0.7-0.3,1.4-0.3,2.1c0,4.5,3.4,7.6,7.7,7.6
				c3.7,0,6.1-1.7,7.3-4.8h-4.9c-0.7,0.9-1.2,1.2-2.5,1.2c-1.5,0-2.8-1.3-2.8-2.9h9.9c0.4,3.5,3.2,6.6,7,6.6c1.6,0,3.1-0.8,4-2.2
				h0.1v1.4h5V84H156.9L156.9,84z M136,96.4c0.3-1.4,1.4-2.2,2.7-2.2c1.4,0,2.4,0.9,2.7,2.2C141.5,96.4,136,96.4,136,96.4L136,96.4z
				 M153.8,102.1c-1.8,0-3-1.7-3-3.5c0-1.9,1-3.8,3-3.8c2.1,0,2.9,1.8,2.9,3.8C156.7,100.4,155.8,102.1,153.8,102.1L153.8,102.1z"/>
			<polygon class="st0" points="161.9,116 161.9,108.4 166.1,108.4 166.1,108.9 162.6,108.9 162.6,111.8 165.9,111.8 165.9,112.3 
				162.6,112.3 162.6,115.4 166.2,115.4 166.2,116 161.9,116 			"/>
			<polygon class="st0" points="166.8,116 168.8,113.3 166.9,110.7 167.7,110.7 169.2,112.8 170.8,110.7 171.6,110.7 169.6,113.3 
				171.7,116 170.9,116 169.2,113.7 167.5,116 166.8,116 			"/>
			<path class="st0" d="M173,118h-0.6v-5.8c0-0.5,0-1.1,0-1.6h0.6l0,0.8c0.4-0.6,0.9-0.9,1.7-0.9c1.6,0,2.4,1.4,2.4,2.8
				c0,1.4-0.7,2.8-2.4,2.8c-0.7,0-1.3-0.3-1.7-0.9V118L173,118z M176.4,113.3c0-1.1-0.5-2.3-1.7-2.3c-1.2,0-1.6,1-1.6,2.3
				c0,1.3,0.4,2.3,1.6,2.3C175.9,115.6,176.4,114.5,176.4,113.3L176.4,113.3z"/>
			<path class="st0" d="M180.4,111.2c-1.1,0-1.4,0.9-1.4,1.8v3h-0.6v-3.8c0-0.5,0-1,0-1.6h0.6l0,0.8c0.3-0.6,0.8-0.9,1.6-0.9
				c0.1,0,0.2,0,0.3,0v0.6C180.7,111.2,180.6,111.2,180.4,111.2L180.4,111.2z"/>
			<path class="st0" d="M181.6,113.5c0,1.2,0.6,2.2,1.7,2.2c0.9,0,1.3-0.6,1.5-1.2h0.6c-0.3,1.1-1,1.7-2.2,1.7
				c-1.6,0-2.3-1.2-2.3-2.7c0-1.5,0.8-2.9,2.4-2.9c1.7,0,2.2,1.5,2.2,2.9H181.6L181.6,113.5z M181.6,113h3.2c0-1-0.5-1.9-1.5-1.9
				C182.4,111,181.8,111.7,181.6,113L181.6,113z"/>
			<path class="st0" d="M188,116.1c-1.1,0-1.9-0.5-1.9-1.7h0.6c0,0.8,0.5,1.2,1.3,1.2c0.7,0,1.3-0.3,1.3-1.1c0-0.6-0.7-0.8-1.4-1
				c-0.8-0.2-1.8-0.5-1.8-1.5c0-1.2,1-1.5,1.9-1.5c1,0,1.8,0.4,1.8,1.5h-0.6c0-0.6-0.5-1-1.2-1c-0.5,0-1.2,0.2-1.2,0.9
				c0,0.6,0.7,0.8,1.4,1c0.8,0.2,1.8,0.5,1.8,1.5C190,115.7,189.1,116.1,188,116.1L188,116.1z"/>
			<path class="st0" d="M192.5,116.1c-1.1,0-1.9-0.5-1.9-1.7h0.6c0,0.8,0.5,1.2,1.3,1.2c0.7,0,1.3-0.3,1.3-1.1c0-0.6-0.7-0.8-1.4-1
				c-0.8-0.2-1.8-0.5-1.8-1.5c0-1.2,1-1.5,1.9-1.5c1,0,1.8,0.4,1.8,1.5h-0.6c0-0.6-0.5-1-1.2-1c-0.5,0-1.2,0.2-1.2,0.9
				c0,0.6,0.7,0.8,1.4,1c0.8,0.2,1.8,0.5,1.8,1.5C194.5,115.7,193.6,116.1,192.5,116.1L192.5,116.1z"/>
		</g>
	</g>
</g>
</svg>
